<svg width="500" height="500" viewBox="0 0 500 500" fill="none" xmlns="http://www.w3.org/2000/svg">
<rect width="500" height="500" fill="white"></rect>
<path d="M249.998 75C311.831 192.25 371.33 236.656 371.331 303.667C371.331 370.677 317.008 425 249.998 425C182.987 425 128.664 370.677 128.664 303.667C128.664 236.656 190.498 190.5 249.998 75ZM299.998 312.5C299.998 333.211 283.209 350 262.498 350C283.209 350 299.998 366.789 299.998 387.5C299.998 366.789 316.787 350 337.498 350C316.787 350 299.998 333.211 299.998 312.5ZM224.998 200C224.998 241.421 191.419 275 149.998 275C191.419 275 224.998 308.579 224.998 350C224.998 308.579 258.577 275 299.998 275C258.577 275 224.998 241.421 224.998 200Z" fill="#1E1E1E"></path>
</svg>
