<svg height="226" viewBox="0 0 455 226" width="455" xmlns="http://www.w3.org/2000/svg"><g fill="#1c1c1c"><path d="m166.93219 224.144058c-2.432648 0-4.387024-.49559-5.869568-1.486831-1.482635-.992402-2.488953-2.372117-3.023651-4.142518l5.534241-2.846084c.681701 1.70549 1.982513 2.558212 3.902313 2.558212 1.512787 0 2.343872-.393936 2.493286-1.182815.043243-.25647 0-.480469-.127808-.672028-.127655-.191498-.350555-.362518-.670868-.511871-.320312-.148255-.618988-.277008-.896057-.383057-.276947-.107132-.666565-.234848-1.166534-.384201-.502167-.149277-.891754-.266205-1.168701-.351654-3.965119-1.386261-5.638123-3.838409-5.021301-7.356506.363677-2.004181 1.344055-3.614426 2.943542-4.829728 1.599396-1.21524 3.549469-1.822342 5.852264-1.822342 1.9198 0 3.560395.446946 4.926056 1.342957 1.363495.896011 2.398041 2.185944 3.101471 3.869827l-5.404297 2.878495c-.554138-1.450089-1.567077-2.175141-3.038787-2.175141-1.108155 0-1.74878.384217-1.919678 1.151474-.084412.46965.108215.85379.575653 1.151398.469696.298691 1.428467.693649 2.87857 1.183899.917695.29863 1.679474.602722 2.287659.911133.608185.309509 1.225037.741333 1.854828 1.295349.629822.55516 1.056183 1.269409 1.279083 2.142715.225189.87439.240326 1.898072.047669 3.071152-.383118 2.174057-1.389557 3.816788-3.021363 4.924896-1.631927 1.109253-3.748687 1.663269-6.348022 1.663269z"></path><path d="m188.616577 224.144058c-2.430603 0-4.510498-.602722-6.237549-1.807205-1.727173-1.204437-2.926239-2.718353-3.597137-4.541779-.673157-1.822418-.848389-3.736694-.528076-5.740875.510803-3.091736 1.97818-5.751663 4.397857-7.979828 2.41977-2.227081 5.399933-3.341736 8.938721-3.341736 1.833069 0 3.47583.346299 4.925903 1.038865 1.450104.693695 2.590699 1.604843 3.421784 2.734634.831116 1.130859 1.417663 2.404526 1.759613 3.822189.339752 1.418686.393921 2.873108.160217 4.365418-.491333 3.113357-1.924133 5.800369-4.302734 8.059952-2.376435 2.26065-5.35672 3.390365-8.938599 3.390365zm-3.166443-7.819687c.852692 1.034546 2.066925 1.550751 3.646851 1.550751 1.575714 0 2.973785-.516205 4.188019-1.550751 1.216369-1.034546 1.963043-2.329879 2.240112-3.886032.276947-1.556137-.010925-2.851486-.863647-3.886032-.852723-1.034546-2.069092-1.551819-3.646851-1.551819s-2.973816.517273-4.190186 1.551819c-1.21408 1.034546-1.960754 2.329895-2.237823 3.886032-.277069 1.556153.010803 2.851486.863525 3.886032z"></path><path d="m219.094482 207.448532h-7.516601l-.517273 2.910996h7.356506l-1.086548 6.204025h-7.371643l-1.257446 7.068634h-6.365356l3.971618-22.387695h13.873291z"></path><path d="m238.413239 201.244492-1.086548 6.20404h-5.276612l-2.878448 16.183655h-6.365326l2.876404-16.183655h-5.276612l1.088593-6.20404z"></path><path d="m240.83075 223.632187-2.099366-22.387695h6.529785l1.01941 12.312835 5.778747-12.312835h5.042786l1.469665 12.3031 5.39563-12.3031h7.068604l-10.267517 22.387695h-6.395569l-1.430664-11.962189-5.715943 11.962189z"></path><path d="m280.565552 223.632187-.255371-2.878494h-6.460572l-1.279052 2.878494h-7.068787l11.066223-22.387695h7.484314l3.198853 22.387695zm-4.445557-7.996048h3.709656l-.638428-6.876053z"></path><path d="m308.519897 209.399689c-.469726 2.729156-1.963073 4.733337-4.477966 6.012466l2.878601 8.187607h-6.397766l-2.313782-7.036209-2.055969-.018372-1.257568 7.054581h-6.365235l3.977967-22.387756h8.945251c2.322266 0 4.187866.772674 5.594727 2.319091 1.406738 1.546402 1.898071 3.501893 1.47174 5.868592zm-10.683044-2.302872-.742371 4.157639h2.627442c.616821.021682 1.147095-.14827 1.584228-.511872.437317-.361435.707764-.873245.815979-1.534454.106018-.661224.004334-1.178497-.303039-1.551819-.309448-.372253-.783386-.559494-1.424011-.559494z"></path><path d="m328.677246 207.065414h-10.850769l-.415527 2.430527h12.27478l1.947815 2.93071-1.947815 2.826431h-13.298523l-.447998 2.49437h12.526306l-3.882568 5.884735h-16.06305l3.932557-22.387695h13.012817z"></path><path d="m336.895264 211.332535 5.899536-10.21843h-11.799072z"></path><path d="m336.895264 213.344788-5.899536 10.218429h11.799072z"></path><path d="m450.521118 208.328262c-.342346-1.417663-.929016-2.69133-1.759765-3.822204-.831177-1.129715-1.971924-2.040985-3.421998-2.73468-1.449829-.692566-3.092956-1.03888-4.926208-1.03888-3.538391 0-6.518555 1.114716-8.938171 3.341812-2.419922 2.228226-3.887207 4.888016-4.398133 7.979767-.320312 2.004181-.144958 3.918656.527954 5.740936.671021 1.823426 1.870118 3.337342 3.597412 4.541779 1.727051 1.204422 3.807068 1.807266 6.237427 1.807266 3.582093 0 6.562012-1.129715 8.938599-3.390503 2.378723-2.259445 3.81134-4.946518 4.302551-8.059814.234131-1.492371.17981-2.946854-.159668-4.365479zm-6.173096 4.110016c-.276794 1.556076-1.023376 2.851547-2.239868 3.88617-1.214233 1.034408-2.612426 1.550674-4.188171 1.550674-1.579895 0-2.794129-.516266-3.646851-1.550674-.852661-1.034623-1.140319-2.330094-.863464-3.88617.276794-1.556076 1.02356-2.851547 2.237915-3.885971 1.216492-1.034546 2.612427-1.551742 4.190063-1.551742 1.578003 0 2.794556.517196 3.646851 1.551742.853088 1.034424 1.140625 2.329895.863525 3.885971zm-79.5083-11.19371-1.8526 10.752289-5.146912-10.752289h-8.914063l-.025512-.090164-.050904.090164h-.097351v.172348l-5.825683 10.314819 5.825683 11.692932v.20752h.103211l.045044.090164.02301-.090164h6.193909l1.917541-10.745804 5.148682 10.745804h5.118957l3.902527-22.387619zm31.051452 0-1.404785 7.931061h-5.468994l1.406738-7.931061h-6.365234l-3.965271 22.387619h6.365601l1.460937-8.251572h5.467041l-1.460876 8.251572h6.365051l3.965027-22.387619zm-21.426635 0-3.96521 22.387619h6.365417l3.965027-22.387619zm46.982849 0h-6.365235l-3.964843 22.387619h13.728332l1.086426-6.20517h-7.356873zm-15.959534 0-3.964905 22.387619h6.365113l3.964843-22.387619z"></path><path d="m206.330261 104.910492-40.591827 79.696579h81.183746z"></path><path d="m206.330261 86.859344 40.591919-79.696594h-81.183746z"></path><path d="m141.938293 108.32019c-2.96582-6.516906-7.411834-11.852325-13.337463-16.004486-5.93161-4.1492-11.604553-7.368927-17.02182-9.654937-5.42334-2.287507-12.365448-4.699646-20.834076-7.24112-11.348877-3.215118-19.015655-5.843292-22.991333-7.875335-3.981506-2.033539-5.972412-4.91092-5.972412-8.638764 0-2.707153 1.145172-4.953583 3.429535-6.731659 2.287292-1.779419 5.62912-2.667633 10.036468-2.667633 11.345948 0 19.477082 6.267822 24.389923 18.80011l42.174775-24.643585c-5.591187-13.377808-14.356232-23.62912-26.295227-30.742371-11.942536-7.113342-25.449494-10.670807-40.525055-10.670807-19.138947 0-34.593567 5.335419-46.365204 16.006165-11.77179 10.670776-17.656464 24.135528-17.656464 40.39566 0 27.438996 17.697266 46.493103 53.098541 57.16388 2.198914.678436 5.502076 1.612335 9.907288 2.795593 4.40445 1.186371 7.496521 2.07608 9.272644 2.667633 1.779663.594818 3.853088 1.396301 6.22583 2.412079 2.369049 1.017578 3.978607 2.203949 4.82724 3.557525.845734 1.358216 1.271454 2.882203 1.271454 4.573517 0 6.09729-5.761353 9.145172-17.278168 9.145172-15.413025 0-26.083374-7.532959-32.011932-22.609924l-43.444183 25.151398c4.405212 13.718841 13.041046 24.604034 25.914001 32.646545 12.870026 8.042603 28.964478 12.068634 48.274353 12.068634 11.708588 0 22.028992-1.546798 31.060791-4.529327l36.88382-65.928406c-.731934-3.363281-1.712036-6.536224-3.033326-9.445557z"></path><path d="m400.588989 7.162628v81.117249l-55.76654-81.117249h-40.559143v.000763l-46.971619 83.166229 46.971619 94.276688v.000763h50.698364v-81.116989l55.769348 81.116989h40.556336v-177.444443zm17.201477 9.518433h9.066284v22.937012h10.424317v8.793884h-19.490601zm18.310547 155.290466c-2.220398 1.767212-5.234497 2.651459-9.042358 2.651459-3.444885 0-6.316345-.717926-8.614075-2.153504-2.297729-1.434326-3.837585-3.37677-4.622131-5.824554l7.749145-4.488617c1.058228 2.690125 2.963562 4.035187 5.713196 4.035187 2.053833 0 3.082275-.543976 3.082275-1.631928 0-.301605-.077331-.57373-.22583-.815826-.151611-.242371-.440002-.453461-.862121-.634766-.424988-.181335-.793457-.324005-1.111634-.430816-.318115-.10553-.86798-.26474-1.652771-.475556-.787597-.21109-1.376098-.377655-1.768493-.499481-6.316651-1.903778-9.473145-5.302948-9.473145-10.198456 0-2.901214 1.049256-5.304474 3.147583-7.208252 2.101685-1.904052 4.86023-2.855194 8.275391-2.855194 2.687317 0 5.097961.634766 7.229065 1.904053 2.131409 1.269012 3.694946 3.09729 4.690552 5.484009l-7.523316 4.397827c-.876892-2.236664-2.327453-3.35437-4.351562-3.35437-.787842 0-1.382202.157409-1.79242.475555-.407409.31662-.609314.717926-.609314 1.200867 0 .665802.35376 1.178497 1.064026 1.541138.710327.36264 2.077759.832366 4.102112 1.406097 1.509827.453186 2.74939.884247 3.718567 1.291412.965881.408936 1.976501.982392 3.034729 1.722718 1.058166.741577 1.851868 1.692688 2.381103 2.856445.528992 1.163727.793457 2.531158.793457 4.102051 0 3.2341-1.111572 5.733764-3.332031 7.502502zm.72815-42.880005c-1.89032 1.663208-4.63385 2.494049-8.227539 2.494049h-13.417847v-31.73114h12.60022c3.566955 0 6.286865.769806 8.159362 2.311188 1.872742 1.541138 2.811951 3.748321 2.811951 6.617981 0 2.75116-1.058227 4.895782-3.174622 6.43692 2.71991 1.541412 4.081238 3.883636 4.081238 7.026947 0 2.901184-.945007 5.182648-2.832763 6.844055zm-4.532898-39.092743-1.087952-4.079712h-9.158081l-1.087952 4.079712h-9.746826l10.109497-31.73117h10.608643l10.109497 31.73117zm-2.606995 19.782257c0-.69403-.243591-1.223266-.725281-1.585907-.484436-.36264-1.058166-.543975-1.723999-.543975h-2.990173v4.261016l3.489685-.04602c1.299011-.181336 1.949768-.875366 1.949768-2.085114zm-5.689209-31.114959h5.258423l-2.627808-9.746552zm4.553955 40.634155-4.304199-.044525v4.533142h3.8078c.725281 0 1.328552-.21109 1.812988-.634766.48169-.423431.725342-.967407.725342-1.631927 0-1.269287-.680542-2.009339-2.041931-2.221924z"></path></g><path d="m400.588867 7.16275v81.117127l-55.766418-81.117127h-40.559265v.000702l-46.971619 83.166107 46.971619 94.276749v.000763h50.698364v-81.117111l55.769348 81.117111h40.556335v-177.444321zm17.201599 9.518189h9.066162v22.937072h10.424439v8.794007h-19.490601zm18.310425 155.290527c-2.220398 1.767151-5.234497 2.651459-9.042236 2.651459-3.445008 0-6.316467-.717865-8.614197-2.153504-2.297729-1.434265-3.837463-3.37677-4.622131-5.824615l7.749145-4.488373c1.058228 2.690064 2.963684 4.035126 5.713135 4.035126 2.054016 0 3.082458-.543976 3.082458-1.631928 0-.301666-.077331-.573669-.22583-.815887-.151733-.24231-.440002-.453308-.862121-.634644-.424988-.181335-.79364-.324005-1.111634-.430999-.318115-.10553-.86798-.264557-1.652771-.475617-.787597-.211029-1.37622-.377472-1.768615-.499359-6.316529-1.903839-9.473206-5.302887-9.473206-10.198517 0-2.901153 1.049317-5.304413 3.147766-7.208252 2.101563-1.903869 4.860047-2.855072 8.275391-2.855072 2.687195 0 5.097839.634644 7.229065 1.90387 2.131286 1.269287 3.694824 3.097351 4.690552 5.484192l-7.523316 4.397766c-.876892-2.236786-2.327453-3.354431-4.351684-3.354431-.78772 0-1.382203.157531-1.79242.475616-.407287.316559-.609314.717865-.609314 1.200867 0 .665863.35376 1.178619 1.064148 1.541199.710327.36264 2.077759.832305 4.10199 1.405975 1.509949.453308 2.749512.884308 3.718567 1.291595.966003.408692 1.976623.982331 3.034851 1.722535 1.058166.741638 1.851868 1.69281 2.380981 2.856506.529114 1.163727.793579 2.531036.793579 4.10199 0 3.234039-1.111755 5.733947-3.332153 7.502502zm.728272-42.879883c-1.890442 1.663147-4.633973 2.493927-8.227723 2.493927h-13.417785v-31.731079h12.600342c3.566955 0 6.286743.769867 8.159362 2.311127 1.87262 1.541199 2.811951 3.74826 2.811951 6.618194 0 2.751008-1.058227 4.89563-3.174622 6.436829 2.71991 1.54129 4.081238 3.883575 4.081238 7.026947 0 2.901123-.945129 5.182526-2.832763 6.844055zm-4.53302-39.092865-1.08783-4.079773h-9.158203l-1.087952 4.079773h-9.746704l10.109375-31.731109h10.608765l10.109314 31.731109z"></path><path d="m428.553894 119.300354-4.30426-.044647v4.53302h3.807861c.725281 0 1.328674-.211029 1.81311-.634583.481568-.423614.725342-.967529.725342-1.631927 0-1.269196-.680725-2.0094-2.042053-2.221863z"></path><path d="m424.000061 78.666138h5.258301l-2.627686-9.746674z"></path><path d="m429.68927 109.781036c0-.694091-.243713-1.223205-.725281-1.585846-.484436-.36264-1.058166-.543975-1.723999-.543975h-2.990356v4.261016l3.489685-.04602c1.299072-.181336 1.949951-.875427 1.949951-2.085175z"></path><path d="m400.588989 7.162628v81.117249l-55.76654-81.117249h-40.559143v.000763l-46.971619 83.166229 46.971619 94.276688v.000763h50.698364v-81.116989l55.769348 81.116989h40.556336v-177.444443zm17.201477 9.518433h9.066284v22.937012h10.424317v8.793884h-19.490601zm18.310547 155.290466c-2.220398 1.767212-5.234497 2.651459-9.042358 2.651459-3.444885 0-6.316345-.717926-8.614075-2.153504-2.297729-1.434326-3.837585-3.37677-4.622131-5.824554l7.749145-4.488617c1.058228 2.690125 2.963562 4.035187 5.713196 4.035187 2.053833 0 3.082275-.543976 3.082275-1.631928 0-.301605-.077331-.57373-.22583-.815826-.151611-.242371-.440002-.453461-.862121-.634766-.424988-.181335-.793457-.324005-1.111634-.430816-.318115-.10553-.86798-.26474-1.652771-.475556-.787597-.21109-1.376098-.377655-1.768493-.499481-6.316651-1.903778-9.473145-5.302948-9.473145-10.198456 0-2.901214 1.049256-5.304474 3.147583-7.208252 2.101685-1.904052 4.86023-2.855194 8.275391-2.855194 2.687317 0 5.097961.634766 7.229065 1.904053 2.131409 1.269012 3.694946 3.09729 4.690552 5.484009l-7.523316 4.397827c-.876892-2.236664-2.327453-3.35437-4.351562-3.35437-.787842 0-1.382202.157409-1.79242.475555-.407409.31662-.609314.717926-.609314 1.200867 0 .665802.35376 1.178497 1.064026 1.541138.710327.36264 2.077759.832366 4.102112 1.406097 1.509827.453186 2.74939.884247 3.718567 1.291412.965881.408936 1.976501.982392 3.034729 1.722718 1.058166.741577 1.851868 1.692688 2.381103 2.856445.528992 1.163727.793457 2.531158.793457 4.102051 0 3.2341-1.111572 5.733764-3.332031 7.502502zm.72815-42.880005c-1.89032 1.663208-4.63385 2.494049-8.227539 2.494049h-13.417847v-31.73114h12.60022c3.566955 0 6.286865.769806 8.159362 2.311188 1.872742 1.541138 2.811951 3.748321 2.811951 6.617981 0 2.75116-1.058227 4.895782-3.174622 6.43692 2.71991 1.541412 4.081238 3.883636 4.081238 7.026947 0 2.901184-.945007 5.182648-2.832763 6.844055zm-4.532898-39.092743-1.087952-4.079712h-9.158081l-1.087952 4.079712h-9.746826l10.109497-31.73117h10.608643l10.109497 31.73117zm-2.606995 19.782257c0-.69403-.243591-1.223266-.725281-1.585907-.484436-.36264-1.058166-.543975-1.723999-.543975h-2.990173v4.261016l3.489685-.04602c1.299011-.181336 1.949768-.875366 1.949768-2.085114zm-5.689209-31.114959h5.258423l-2.627808-9.746552zm4.553955 40.634155-4.304199-.044525v4.533142h3.8078c.725281 0 1.328552-.21109 1.812988-.634766.48169-.423431.725342-.967407.725342-1.631927 0-1.269287-.680542-2.009339-2.041931-2.221924z" fill="none"></path></svg>